<svg width="892" height="488" viewBox="0 0 892 488" fill="none" xmlns="http://www.w3.org/2000/svg"><path d="M647.685 487.37c134.584 0 243.685-109.101 243.685-243.685S782.269 0 647.685 0 404 109.101 404 243.685 513.101 487.37 647.685 487.37z" fill="#E8FCD3"/><path d="M726.99 160.436c-11.819-30.034-41.457-32.745-75.969-26.044l-12.29-42.843-26.075 7.478 11.971 41.731c-6.853 1.95-13.829 4.113-20.759 6.245l-12.032-42.005-26.059 7.463 12.261 42.842c-5.605 1.737-11.118 3.442-16.525 4.996l-.046-.152-35.974 10.311 7.996 27.871s19.16-5.909 18.931-5.452c10.57-3.031 15.764 2.117 18.277 7.127l14.012 48.798a23.231 23.231 0 012.802-.609l-2.757.792 19.602 68.384c.487 3.457.061 9.321-7.311 11.453.411.198-18.977 5.422-18.977 5.422l3.762 32.639 33.933-9.748c6.321-1.781 12.565-3.457 18.673-5.178l12.443 43.33 26.044-7.462-12.291-42.874a1001.598 1001.598 0 0020.896-5.787l12.214 42.69 26.09-7.478-12.398-43.254c43.117-15.093 70.639-34.938 62.643-77.218-6.427-34.024-26.257-44.35-52.865-43.193 12.916-12.032 18.475-28.298 9.778-50.26v-.015zm-9.9 103.109c9.291 32.395-47.213 44.61-64.881 49.697l-16.464-57.419c17.668-5.071 71.644-26.043 81.33 7.737l.015-.015zm-35.364-77.522c8.437 29.471-38.792 39.294-53.52 43.513l-14.925-52.072c14.712-4.219 59.626-22.161 68.445 8.574v-.015z" fill="#fff"/><path d="M437.685 487.37c134.584 0 243.685-109.101 243.685-243.685S572.269 0 437.685 0 194 109.101 194 243.685 303.101 487.37 437.685 487.37z" fill="#CAEBA6"/><path d="M516.99 160.436c-11.819-30.034-41.457-32.745-75.969-26.044l-12.29-42.843-26.075 7.478 11.971 41.731c-6.853 1.95-13.829 4.113-20.759 6.245l-12.032-42.005-26.059 7.463 12.261 42.842c-5.605 1.737-11.118 3.442-16.525 4.996l-.046-.152-35.974 10.311 7.996 27.871s19.16-5.909 18.931-5.452c10.57-3.031 15.764 2.117 18.277 7.127l14.012 48.798a23.231 23.231 0 012.802-.609l-2.757.792 19.602 68.384c.487 3.457.061 9.321-7.311 11.453.411.198-18.977 5.422-18.977 5.422l3.762 32.639 33.933-9.748c6.321-1.781 12.565-3.457 18.673-5.178l12.443 43.33 26.044-7.462-12.291-42.874a1001.598 1001.598 0 0020.896-5.787l12.214 42.69 26.09-7.478-12.398-43.254c43.117-15.093 70.639-34.938 62.643-77.218-6.427-34.024-26.257-44.35-52.865-43.193 12.916-12.032 18.475-28.298 9.778-50.26v-.015zm-9.9 103.109c9.291 32.395-47.213 44.61-64.881 49.697l-16.464-57.419c17.668-5.071 71.644-26.043 81.33 7.737l.015-.015zm-35.364-77.522c8.437 29.471-38.792 39.294-53.52 43.513l-14.925-52.072c14.712-4.219 59.626-22.161 68.445 8.574v-.015z" fill="#fff"/><path d="M243.685 487.37c134.584 0 243.685-109.101 243.685-243.685S378.269 0 243.685 0 0 109.101 0 243.685 109.101 487.37 243.685 487.37z" fill="#8DC351"/><path d="M322.99 160.436c-11.819-30.034-41.457-32.745-75.969-26.044l-12.29-42.843-26.075 7.478 11.971 41.731c-6.853 1.95-13.829 4.113-20.759 6.245l-12.032-42.005-26.059 7.463 12.261 42.842c-5.605 1.737-11.118 3.442-16.525 4.996l-.046-.152-35.974 10.311 7.996 27.871s19.16-5.909 18.931-5.452c10.57-3.031 15.764 2.117 18.277 7.127l14.012 48.798a23.231 23.231 0 012.802-.609l-2.757.792 19.602 68.384c.487 3.457.061 9.321-7.311 11.453.411.198-18.977 5.422-18.977 5.422l3.762 32.639 33.933-9.748c6.321-1.781 12.565-3.457 18.673-5.178l12.443 43.33 26.044-7.462-12.291-42.874a1001.598 1001.598 0 0020.896-5.787l12.214 42.69 26.09-7.478-12.398-43.254c43.117-15.093 70.639-34.938 62.643-77.218-6.427-34.024-26.257-44.35-52.865-43.193 12.916-12.032 18.475-28.298 9.778-50.26v-.015zm-9.9 103.109c9.291 32.395-47.213 44.61-64.881 49.697l-16.464-57.419c17.668-5.071 71.644-26.043 81.33 7.737l.015-.015zm-35.364-77.522c8.437 29.471-38.792 39.294-53.52 43.513l-14.925-52.072c14.712-4.219 59.626-22.161 68.445 8.574v-.015z" fill="#fff"/></svg>